# xmcd CD database file
#
# Track frame offsets:
#	150
#	22931
#	40399
#	58577
#	72014
#	98740
#	114747
#	128010
#	147394
#	172419
#	182847
#	195709
#	209302
#	222851
#	236298
#
# Disc length: 3414 seconds
#
# Revision: 0
# Processed by: cddbd v1.5.1PL0 Copyright (c) Steve Scherf et al.
# Submitted via: CDex 1.51
#
DISCID=dc0d540f
DTITLE=Shardad - Cinema Passion
DYEAR=1900
DGENRE=New Age
TTITLE0=My Heart Will Go On (Love Theme From Titanic)
TTITLE1=Forest Gump (Main Theme)
TTITLE2=Sabrina (Main Theme)
TTITLE3=Raindrops (Butch Cassidy And The Sundncekid)
TTITLE4=Berto Surto #8 (Age Of Innocence)
TTITLE5=St. Elmo'S Fire (Love Theme)
TTITLE6=II Postino (The Postman)
TTITLE7=Moon River (Breakfast At Tiffany'S)
TTITLE8=Out There (The Hunchback Of Notre Dame)
TTITLE9=Charade (Main Theme)
TTITLE10=Maria (Westside Story)
TTITLE11=Someday (The Huntchback Of Notre Dame)
TTITLE12=Romeo And Juliet (Love Theme)
TTITLE13=Close To You
TTITLE14=Bonus Track
EXTD=
EXTT0=
EXTT1=
EXTT2=
EXTT3=
EXTT4=
EXTT5=
EXTT6=
EXTT7=
EXTT8=
EXTT9=
EXTT10=
EXTT11=
EXTT12=
EXTT13=
EXTT14=
PLAYORDER=
